PathFileType	4	(X/Y/Z)	/Users/niels/Desktop/University/Third Semester/Perception and Action/Exam/Gymnastics Motion Tracking/Code for Gym Tracking/Analyzed Data/Webcam_Backflip/id19_5_trajectory_Sports2D/id19_5_trajectory_Sports2D_px_person00.trc
DataRate	CameraRate	NumFrames	NumMarkers	Units	OrigDataRate	OrigDataStartFrame	OrigNumFrames
29.714285714285715	29.714285714285715	11	22	m	29.714285714285715	65	105
Frame#	Time	Hip			RHip			RKnee			RAnkle			RBigToe			RSmallToe			RHeel			LHip			LKnee			LAnkle			LBigToe			LSmallToe			LHeel			Neck			Head			Nose			RShoulder			RElbow			RWrist			LShoulder			LElbow			LWrist		
		X1	Y1	Z1	X2	Y2	Z2	X3	Y3	Z3	X4	Y4	Z4	X5	Y5	Z5	X6	Y6	Z6	X7	Y7	Z7	X8	Y8	Z8	X9	Y9	Z9	X10	Y10	Z10	X11	Y11	Z11	X12	Y12	Z12	X13	Y13	Z13	X14	Y14	Z14	X15	Y15	Z15	X16	Y16	Z16	X17	Y17	Z17	X18	Y18	Z18	X19	Y19	Z19	X20	Y20	Z20	X21	Y21	Z21	X22	Y22	Z22
65	2.1875	1.0035405645836013	-0.7571554188889341	0.0	0.974181616007108	-0.7556346626400549	0.0	0.993603760547187	-0.8976406331618074	0.0	0.8890265580808081	-0.9272185908200766	0.0	0.8810912879943751	-0.9868194845716187	0.0	0.8677927327652022	-0.9745447171589753	0.0	0.8723636701724274	-0.9208019412736492	0.0	1.0296780332013447	-0.7628036062759702	0.0	1.0435163605619595	-0.8951304565172399	0.0	1.0162072251797707	-1.0354354137356498	0.0	1.0510531344934295	-1.0633005733846248	0.0	1.0465241800718021	-1.0714826297495474	0.0	1.0034404480284727	-1.0436609353577802	0.0	1.0710557872806108	-0.5525590714588707	0.0	1.1102313513974869	-0.46971930547972973	0.0	1.106758430408371	-0.5207941524641168	0.0	1.0148937388628532	-0.5650983304791191	0.0	0.9735272927505609	-0.6502956662827628	0.0	1.0090256346155546	-0.7230097072971395	0.0	1.0939307730070462	-0.6035139514148742	0.0	1.101234716049456	-0.6859209177450222	0.0	1.1450042647868546	-0.752876246813414	0.0
66	2.2211538461538463	1.0141468263952527	-0.7615357043948096	0.0	0.9856988207629822	-0.7608688173273602	0.0	1.0203038497284915	-0.8980801970687208	0.0	0.9129599090739307	-0.9334962947397537	0.0	0.911095515405833	-0.9944955485668927	0.0	0.8974543104092894	-0.9831278158656632	0.0	0.8944323889523922	-0.9279362251632828	0.0	1.0396044948474696	-0.7675499970995752	0.0	1.048075487388963	-0.9000526811066664	0.0	1.016295075042264	-1.0391008097019716	0.0	1.0553609896274065	-1.0710042947457474	0.0	1.046949880507433	-1.0697032520561616	0.0	1.0033467696406964	-1.0458638395676902	0.0	1.0771140319922543	-0.5523721756547093	0.0	1.1112269356003615	-0.46760144235931483	0.0	1.1083306478863901	-0.5192397557902053	0.0	1.0210017207860085	-0.5651796523765074	0.0	0.9875564499349477	-0.6508362104274839	0.0	1.0450457936040287	-0.7078632983575749	0.0	1.1026057057577552	-0.6035723267912105	0.0	1.1313411668644275	-0.6830255796151896	0.0	1.1970049935277063	-0.7375099602414891	0.0
67	2.254807692307692	1.0242475295500362	-0.7613435199013938	0.0	0.9970185552266758	-0.7614897035477771	0.0	1.048602832692844	-0.8922452836412893	0.0	0.9391521184473807	-0.9376067058184645	0.0	0.9441923247679149	-0.999712845831117	0.0	0.9303413802483856	-0.989969897881445	0.0	0.9184887396781779	-0.9334401177509514	0.0	1.0485350073742457	-0.7676724602224241	0.0	1.050842708879506	-0.9002338178806127	0.0	1.016356489810692	-1.039435254193017	0.0	1.058018615527614	-1.0719690461376312	0.0	1.0466466814078343	-1.061378481021686	0.0	1.0031911441232688	-1.0449844002558664	0.0	1.0837801763253168	-0.5494121409572235	0.0	1.1141901043078741	-0.46294584443819453	0.0	1.1115355418787216	-0.5155317790710504	0.0	1.0280680497608417	-0.5616533331996982	0.0	0.9991438300035428	-0.6447986858243379	0.0	1.0740218276610136	-0.6835256244357832	0.0	1.111787976881897	-0.5997860642999399	0.0	1.1580911663217193	-0.6723301084568772	0.0	1.239014677412068	-0.7084294501584817	0.0
68	2.2884615384615383	1.0342116133371597	-0.7560867154650371	0.0	1.0084036250421515	-0.7570788586006252	0.0	1.0773279984209971	-0.8801672400155656	0.0	0.9678560109066843	-0.9391564394606386	0.0	0.9802455816651754	-1.0016274698058714	0.0	0.9663099176877105	-0.9940176043083512	0.0	0.9453441641298285	-0.9371414187679801	0.0	1.0568694715845033	-0.7628439958982508	0.0	1.0523542729693007	-0.895406705340221	0.0	1.0165046534202569	-1.0362115401916627	0.0	1.0589745651761466	-1.066088059982744	0.0	1.0462317827125727	-1.049945187691228	0.0	1.0030018736359771	-1.0409284057732788	0.0	1.0912498349691362	-0.5430625278728196	0.0	1.1194613136820877	-0.4551782815028336	0.0	1.1169808035964597	-0.508820693301908	0.0	1.036118183674521	-0.5542210020521473	0.0	1.0080761155445832	-0.6330163417594319	0.0	1.0948884153537237	-0.6537346384744127	0.0	1.12166806738082	-0.5919614495274051	0.0	1.180908489517799	-0.6556692633949969	0.0	1.2688794018396163	-0.6701183595524874	0.0
69	2.3221153846153846	1.044441523705712	-0.7458632371598496	0.0	1.0200765737220852	-0.7477198043691153	0.0	1.1050006434949555	-0.8629394736680902	0.0	0.9993019180588961	-0.938483669443244	0.0	1.019341497920385	-0.999858999927533	0.0	1.0052963595185724	-0.9946428631982437	0.0	0.9757655653953649	-0.9396706540683154	0.0	1.0652361151935223	-0.7531282824282838	0.0	1.0536567123702898	-0.8859200877889976	0.0	1.0169551025816306	-1.0292273646123173	0.0	1.0596320047576289	-1.0555321496161856	0.0	1.04691146304359	-1.0379800933732388	0.0	1.0031736115304948	-1.033911366213866	0.0	1.099564359932954	-0.5330857603284124	0.0	1.1270677758963272	-0.4440780389104894	0.0	1.124885235101908	-0.49856880642745305	0.0	1.0451554433126566	-0.5429834288490212	0.0	1.0147448311991971	-0.6168497764716147	0.0	1.1084655954607685	-0.6221699282274552	0.0	1.1321827907491313	-0.5801483424982823	0.0	1.200074515329124	-0.635411537997563	0.0	1.2867241340356197	-0.6277311717776246	0.0
70	2.355769230769231	1.0553241522998906	-0.7314861347540627	0.0	1.0322898188999192	-0.7341159991929639	0.0	1.1304057100633935	-0.8426239019422405	0.0	1.0335727155061776	-0.9365571465954489	0.0	1.0613980320046152	-0.9945818392465963	0.0	1.0471716425199744	-0.9918552901214983	0.0	1.0101958455146076	-0.9421615213345217	0.0	1.0743109218620743	-0.7391230571863043	0.0	1.0559006139309814	-0.8727382856567062	0.0	1.0179592295784872	-1.0185982721766194	0.0	1.0612865066812065	-1.0424217658866444	0.0	1.049146409694973	-1.0263170708225229	0.0	1.0041630954332113	-1.0245000299381046	0.0	1.1087227297352462	-0.519673933410167	0.0	1.136717547678126	-0.4297643319051097	0.0	1.1350197666896766	-0.4847416205177411	0.0	1.0551550424363247	-0.528442162460917	0.0	1.0199313870242834	-0.5977850721985702	0.0	1.1166174612936284	-0.5917421297433341	0.0	1.1431777458737955	-0.5647036356343726	0.0	1.2164116824205984	-0.6137783273333951	0.0	1.2945139741638543	-0.5859265402819422	0.0
71	2.3894230769230766	1.067140179696853	-0.7144403563277023	0.0	1.0453074649447738	-0.7176035676123421	0.0	1.1528626133081425	-0.8218772054195059	0.0	1.0704455128896937	-0.9346258012411114	0.0	1.1055937549835888	-0.9867826854187636	0.0	1.0913075083249228	-0.9865316901027735	0.0	1.0485154535581205	-0.9455434964354958	0.0	1.0845520138688507	-0.7220821274844643	0.0	1.0599380049743659	-0.8572720626083077	0.0	1.0197657436149703	-1.0048759160147416	0.0	1.0637372231446869	-1.0280652611837855	0.0	1.0521260670632264	-1.0149767123672395	0.0	1.0060863053916167	-1.0132924415519846	0.0	1.1187067590317452	-0.5034865268089073	0.0	1.1478962433155493	-0.4127721552036536	0.0	1.1467400598364355	-0.46797100508099776	0.0	1.0660192307034446	-0.5114705195189269	0.0	1.0245061021941924	-0.5772036010361073	0.0	1.1212779226461158	-0.5644391486026524	0.0	1.1546047102080232	-0.5464069184362793	0.0	1.2309194317338539	-0.592427663594112	0.0	1.2951713325055978	-0.5481456138194991	0.0
72	2.423076923076923	1.080046293832058	-0.6965542472225811	0.0	1.0593542657466595	-0.6999292266800281	0.0	1.172114926252526	-0.8033795440526444	0.0	1.1090890027386644	-0.9338959779625133	0.0	1.1504064666928029	-0.9782812048260704	0.0	1.1364728204890513	-0.980374223040586	0.0	1.0897387170160453	-0.9501953825854328	0.0	1.0961406946459897	-0.7037524401859999	0.0	1.0662015077493507	-0.8410585292862806	0.0	1.0225837591738325	-0.9890770903249637	0.0	1.0660259324693158	-1.0139542764236567	0.0	1.0548079937317458	-1.0042463031664877	0.0	1.0088348917998584	-1.0007336923911794	0.0	1.1294499940912024	-0.48561680479305924	0.0	1.1599205720142154	-0.39405783109858594	0.0	1.1590862214156805	-0.4494936181579949	0.0	1.0775737834061208	-0.4931962087989967	0.0	1.029205029067979	-0.556338809596054	0.0	1.1239910456040332	-0.5415132206149706	0.0	1.166560606359877	-0.5264705636616851	0.0	1.2444440086480222	-0.5724071229700927	0.0	1.2916822568296786	-0.5163888713051394	0.0
73	2.456730769230769	1.0941151326537073	-0.6795538996058447	0.0	1.074605991406927	-0.6828590836306638	0.0	1.188215396250632	-0.7892629525801818	0.0	1.1478743273415601	-0.9353208423047433	0.0	1.1940475111589834	-0.9711901500413238	0.0	1.1810183108815144	-0.9753704641419195	0.0	1.131845315934202	-0.9561545410148242	0.0	1.1090792457726373	-0.6859524446618825	0.0	1.0748198722304285	-0.8254917142771266	0.0	1.0265867903758252	-0.9725927751477482	0.0	1.0680432235312072	-1.0019129696419737	0.0	1.0571089071990984	-0.9948054640761751	0.0	1.012471469428798	-0.987284510819798	0.0	1.1408269482763262	-0.46742865199675987	0.0	1.1719584810147379	-0.37487731173736044	0.0	1.1710536522845387	-0.43076637510630333	0.0	1.0896447902510562	-0.4748713840757751	0.0	1.0345511327757484	-0.5362986088998147	0.0	1.1258853438819796	-0.523692951068614	0.0	1.179082536852074	-0.5063558458698194	0.0	1.2574158411486391	-0.5543397886750017	0.0	1.286486650534841	-0.491444581359634	0.0
74	2.4903846153846154	1.1093390340518758	-0.6648009392447068	0.0	1.0911801384875306	-0.6678832860066658	0.0	1.2015397859913293	-0.780766774167254	0.0	1.1846199144811442	-0.9394223228480562	0.0	1.2346818108385718	-0.9671997295937159	0.0	1.222917597010009	-0.973107243407188	0.0	1.1720527983814908	-0.9633852592747022	0.0	1.123253890613864	-0.6702298837494708	0.0	1.0857703126679374	-0.811748380707336	0.0	1.031945391574395	-0.9568798581609137	0.0	1.070432029310988	-0.9931500254173687	0.0	1.0597215576202061	-0.987206665029087	0.0	1.0172933141930978	-0.9735333434555269	0.0	1.1526233910251344	-0.4503661282337181	0.0	1.1831862038525527	-0.3566096969298339	0.0	1.182003469348688	-0.4130964408277768	0.0	1.1020903149255399	-0.4578123510177146	0.0	1.040833931958382	-0.5181264468160428	0.0	1.1277298846748696	-0.5113444699633263	0.0	1.1919318872372664	-0.4875443903930721	0.0	1.269822683451113	-0.5386728577273051	0.0	1.2812907580183757	-0.4733079031364263	0.0
75	2.5240384615384612	1.125643907561094	-0.6532851640671913	0.0	1.1091207771566292	-0.6561566552020927	0.0	1.2127755388540602	-0.7781383664457745	0.0	1.2171196294269475	-0.9462449622295078	0.0	1.2706065595130425	-0.9672534331612472	0.0	1.2599979912754582	-0.9744527901660509	0.0	1.2074603431985056	-0.971857972817553	0.0	1.1385160625601056	-0.6577832614658222	0.0	1.0988950545382725	-0.8008490412820826	0.0	1.038772884841786	-0.9431869428812422	0.0	1.0733080134348876	-0.9877168290564852	0.0	1.0630888386759347	-0.9815986541977472	0.0	1.0236018999845988	-0.9601805472060481	0.0	1.1645392813901347	-0.43578689205735477	0.0	1.1930414987063394	-0.3405820847780294	0.0	1.1918660441868576	-0.3975891176704612	0.0	1.1147648979929525	-0.44335186873598825	0.0	1.0481192131167811	-0.5028723038091529	0.0	1.1300337006660568	-0.5046330747597012	0.0	1.2046253059043293	-0.4713432183070009	0.0	1.2814501623751031	-0.5258515591208592	0.0	1.277184296430287	-0.4616189882796846	0.0
